<svg width="20" height="21" viewBox="0 0 20 21" fill="none" xmlns="http://www.w3.org/2000/svg">
<path d="M15.4545 0.333984H4.54545C3.34037 0.335428 2.18505 0.814786 1.33293 1.66691C0.480802 2.51904 0.00144351 3.67435 0 4.87944V12.1522C0.00132229 13.1996 0.363718 14.2146 1.02611 15.026C1.6885 15.8375 2.61038 16.3957 3.63636 16.6067V19.4249C3.63634 19.5895 3.681 19.751 3.76557 19.8922C3.85014 20.0334 3.97146 20.149 4.11658 20.2266C4.2617 20.3042 4.42517 20.341 4.58956 20.333C4.75395 20.3251 4.91309 20.2726 5.05 20.1813L10.2727 16.6976H15.4545C16.6596 16.6962 17.8149 16.2168 18.6671 15.3647C19.5192 14.5126 19.9986 13.3573 20 12.1522V4.87944C19.9986 3.67435 19.5192 2.51904 18.6671 1.66691C17.8149 0.814786 16.6596 0.335428 15.4545 0.333984ZM13.6364 11.2431H6.36364C6.12253 11.2431 5.8913 11.1473 5.72081 10.9768C5.55032 10.8063 5.45455 10.5751 5.45455 10.334C5.45455 10.0929 5.55032 9.86165 5.72081 9.69116C5.8913 9.52067 6.12253 9.42489 6.36364 9.42489H13.6364C13.8775 9.42489 14.1087 9.52067 14.2792 9.69116C14.4497 9.86165 14.5455 10.0929 14.5455 10.334C14.5455 10.5751 14.4497 10.8063 14.2792 10.9768C14.1087 11.1473 13.8775 11.2431 13.6364 11.2431ZM15.4545 7.60671H4.54545C4.30435 7.60671 4.07312 7.51093 3.90263 7.34045C3.73214 7.16996 3.63636 6.93873 3.63636 6.69762C3.63636 6.45651 3.73214 6.22528 3.90263 6.0548C4.07312 5.88431 4.30435 5.78853 4.54545 5.78853H15.4545C15.6957 5.78853 15.9269 5.88431 16.0974 6.0548C16.2679 6.22528 16.3636 6.45651 16.3636 6.69762C16.3636 6.93873 16.2679 7.16996 16.0974 7.34045C15.9269 7.51093 15.6957 7.60671 15.4545 7.60671Z" fill="#555555"/>
</svg>
