<svg width="20" height="19" viewBox="0 0 20 19" fill="none" xmlns="http://www.w3.org/2000/svg">
<path d="M4.85883 8.0459C4.4932 8.0459 4.18457 8.44863 4.18457 8.9248C4.18457 9.40137 4.49316 9.8041 4.85883 9.8041C5.22445 9.8041 5.53344 9.40137 5.53344 8.9248C5.53344 8.44863 5.22445 8.0459 4.85883 8.0459Z" fill="#555555"/>
<path d="M10.7719 12.6943C10.4063 12.6943 10.0977 13.0971 10.0977 13.5736C10.0977 14.0498 10.4062 14.4525 10.7719 14.4525C11.1375 14.4525 11.4466 14.0498 11.4466 13.5736C11.4466 13.0971 11.1375 12.6943 10.7719 12.6943Z" fill="#555555"/>
<path d="M14.6035 5.57348C8.66281 0.107158 8.96668 0.315948 8.49437 0.132471C7.82316 -0.133779 7.02449 0.00543989 6.47281 0.51294L0.973086 5.57348C0.354687 6.14223 0 6.95161 0 7.79458V16.7559C0 17.8118 0.854726 18.6711 1.90512 18.6711H13.6711C14.7215 18.6711 15.5762 17.8118 15.5762 16.7559V7.79458C15.5762 6.95161 15.2215 6.14223 14.6035 5.57348ZM7.22129 3.65239C7.25679 3.31185 7.56914 3.07001 7.91859 3.1356C8.25281 3.20528 8.44105 3.52599 8.37875 3.82466C8.31254 4.14286 8.0132 4.34556 7.68968 4.28481C7.3807 4.22036 7.19211 3.93966 7.22129 3.65239ZM3.01297 8.92505C3.01297 7.79419 3.84113 6.87427 4.85914 6.87427C5.87754 6.87427 6.70566 7.79419 6.70566 8.92505C6.70566 10.0559 5.8775 10.9762 4.85914 10.9762C3.84113 10.9762 3.01297 10.0559 3.01297 8.92505ZM6.37207 15.1618C5.95801 15.1618 5.66902 14.7372 5.83222 14.3489L8.68464 7.55044C8.81004 7.252 9.15339 7.11138 9.45183 7.23677C9.75027 7.36177 9.8905 7.70552 9.7655 8.00395L6.91269 14.8024C6.81855 15.0266 6.60136 15.1618 6.37207 15.1618ZM10.7718 15.6243C9.75379 15.6243 8.92566 14.7043 8.92566 13.5735C8.92566 12.4426 9.75382 11.5223 10.7718 11.5223C11.7898 11.5223 12.6183 12.4426 12.6183 13.5735C12.6183 14.7043 11.7898 15.6243 10.7718 15.6243Z" fill="#555555"/>
<path d="M19.8534 12.0088C17.9455 6.45512 16.8859 3.3673 16.8709 3.33223C16.5392 2.56426 15.8946 1.96699 15.1032 1.69394C15.0578 1.67852 15.3258 1.74359 11.0762 0.735352L15.397 4.71113C16.256 5.50097 16.7486 6.6248 16.7486 7.79472V15.3885L18.8565 14.4861C19.81 14.0736 20.2534 12.9662 19.8534 12.0088Z" fill="#555555"/>
</svg>
