<svg width="16" height="15" viewBox="0 0 16 15" fill="none" xmlns="http://www.w3.org/2000/svg">
<path d="M1.53857 12.9544C1.54019 13.4964 1.75622 14.0157 2.13946 14.3989C2.52271 14.7822 3.04204 14.9982 3.58403 14.9998H7.67494V8.18164H1.53857V12.9544Z" fill="#B8B8B8"/>
<path d="M9.03857 14.9998H13.1295C13.6715 14.9982 14.1908 14.7822 14.5741 14.3989C14.9573 14.0157 15.1733 13.4964 15.1749 12.9544V8.18164H9.03857V14.9998Z" fill="#B8B8B8"/>
<path d="M13.8115 2.72727H11.6433C11.7259 2.5095 11.7675 2.27835 11.766 2.04545C11.7644 1.50346 11.5484 0.984135 11.1651 0.600888C10.7819 0.217641 10.2626 0.0016187 9.72057 0C9.21567 0.00131677 8.72941 0.190955 8.35693 0.531818C7.98445 0.190955 7.4982 0.00131677 6.9933 0C6.45131 0.0016187 5.93198 0.217641 5.54873 0.600888C5.16548 0.984135 4.94946 1.50346 4.94784 2.04545C4.94639 2.27835 4.988 2.5095 5.07057 2.72727H2.90239C2.3604 2.72889 1.84107 2.94491 1.45782 3.32816C1.07457 3.71141 0.858552 4.23074 0.856934 4.77273V6.13636C0.856934 6.31719 0.928768 6.49062 1.05663 6.61848C1.1845 6.74635 1.35792 6.81818 1.53875 6.81818H7.67512V2.72727H6.9933C6.85845 2.72727 6.72662 2.68728 6.6145 2.61237C6.50237 2.53745 6.41498 2.43096 6.36338 2.30637C6.31177 2.18179 6.29827 2.0447 6.32458 1.91244C6.35089 1.78018 6.41583 1.65869 6.51118 1.56334C6.60653 1.46798 6.72802 1.40305 6.86028 1.37674C6.99254 1.35043 7.12963 1.36393 7.25422 1.41554C7.3788 1.46714 7.48529 1.55453 7.56021 1.66666C7.63513 1.77878 7.67512 1.9106 7.67512 2.04545V2.72727H9.03875V2.04545C9.03875 1.9106 9.07874 1.77878 9.15366 1.66666C9.22858 1.55453 9.33506 1.46714 9.45965 1.41554C9.58424 1.36393 9.72133 1.35043 9.85359 1.37674C9.98585 1.40305 10.1073 1.46798 10.2027 1.56334C10.298 1.65869 10.363 1.78018 10.3893 1.91244C10.4156 2.0447 10.4021 2.18179 10.3505 2.30637C10.2989 2.43096 10.2115 2.53745 10.0994 2.61237C9.98724 2.68728 9.85542 2.72727 9.72057 2.72727H9.03875V6.81818H15.1751C15.3559 6.81818 15.5294 6.74635 15.6572 6.61848C15.7851 6.49062 15.8569 6.31719 15.8569 6.13636V4.77273C15.8553 4.23074 15.6393 3.71141 15.256 3.32816C14.8728 2.94491 14.3535 2.72889 13.8115 2.72727Z" fill="#B8B8B8"/>
</svg>
