<svg width="31" height="31" viewBox="0 0 31 31" fill="none" xmlns="http://www.w3.org/2000/svg">
<path d="M30.0413 12.3962H28.833V12.334H15.333V18.334H23.8103C22.5735 21.8267 19.2503 24.334 15.333 24.334C10.3628 24.334 6.33301 20.3042 6.33301 15.334C6.33301 10.3637 10.3628 6.33398 15.333 6.33398C17.6273 6.33398 19.7145 7.19948 21.3038 8.61323L25.5465 4.37048C22.8675 1.87373 19.284 0.333984 15.333 0.333984C7.04926 0.333984 0.333008 7.05023 0.333008 15.334C0.333008 23.6177 7.04926 30.334 15.333 30.334C23.6168 30.334 30.333 23.6177 30.333 15.334C30.333 14.3282 30.2295 13.3465 30.0413 12.3962Z" fill="#FFC107"/>
<path d="M2.06226 8.35223L6.99051 11.9665C8.32401 8.66499 11.5535 6.33398 15.3328 6.33398C17.627 6.33398 19.7143 7.19948 21.3035 8.61323L25.5463 4.37048C22.8673 1.87373 19.2838 0.333984 15.3328 0.333984C9.57126 0.333984 4.57476 3.58673 2.06226 8.35223Z" fill="#FF3D00"/>
<path d="M15.3332 30.3345C19.2077 30.3345 22.7282 28.8517 25.39 26.4405L20.7475 22.512C19.2415 23.6527 17.3695 24.3345 15.3332 24.3345C11.4317 24.3345 8.11899 21.8468 6.87099 18.375L1.97949 22.1437C4.46199 27.0015 9.50349 30.3345 15.3332 30.3345Z" fill="#4CAF50"/>
<path d="M30.0413 12.3962H28.833V12.334H15.333V18.334H23.8103C23.2163 20.0117 22.137 21.4585 20.745 22.5122C20.7458 22.5115 20.7465 22.5115 20.7473 22.5107L25.3898 26.4392C25.0613 26.7377 30.333 22.834 30.333 15.334C30.333 14.3282 30.2295 13.3465 30.0413 12.3962Z" fill="#1976D2"/>
</svg>
