<svg width="19" height="20" viewBox="0 0 19 20" fill="none" xmlns="http://www.w3.org/2000/svg">
<path d="M9.1039 15.8152C9.1042 14.8267 9.37092 13.8565 9.87599 13.0068C10.3811 12.157 11.1058 11.4591 11.974 10.9864C12.8422 10.5137 13.8218 10.2838 14.8096 10.3207C15.7974 10.3577 16.7571 10.6602 17.5875 11.1965C17.5934 10.7891 17.5965 10.3543 17.5965 9.88516C17.5965 7.47305 17.5145 5.96758 17.3523 4.4082H17.3754C17.2857 3.53927 16.9539 2.71297 16.4177 2.0234C15.8814 1.33382 15.1623 0.808697 14.3422 0.507812C14.2988 0.491406 14.2555 0.475781 14.2117 0.460937C13.8876 0.351997 13.5525 0.279032 13.2125 0.243359L13.1801 0.239844C11.8828 0.106641 11.6746 0 8.93906 0C6.20351 0 5.76094 0.106641 4.46484 0.241797L4.43242 0.245312C4.07546 0.282799 3.72404 0.361447 3.38516 0.479687V0.462109C2.54017 0.749405 1.79528 1.27295 1.23877 1.9707C0.682269 2.66844 0.337492 3.51111 0.245312 4.39883C0.0828124 5.96133 0 7.46836 0 9.88516C0 12.302 0.0828124 13.809 0.245312 15.3715C0.356275 16.4377 0.83057 17.4334 1.58862 18.1913C2.34667 18.9493 3.34235 19.4235 4.40859 19.5344L4.44101 19.5379C5.73828 19.673 5.94609 19.7797 8.68164 19.7797C9.58789 19.7797 10.2441 19.768 10.7594 19.7473C10.2347 19.2357 9.81784 18.6242 9.5335 17.9489C9.24916 17.2735 9.10309 16.548 9.1039 15.8152ZM4.53359 5.20117H13.0613C13.3081 5.20117 13.5448 5.2992 13.7193 5.4737C13.8938 5.6482 13.9918 5.88486 13.9918 6.13164C13.9918 6.37842 13.8938 6.61508 13.7193 6.78958C13.5448 6.96408 13.3081 7.06211 13.0613 7.06211H4.53555C4.28877 7.06211 4.0521 6.96408 3.87761 6.78958C3.70311 6.61508 3.60508 6.37842 3.60508 6.13164C3.60508 5.88486 3.70311 5.6482 3.87761 5.4737C4.0521 5.2992 4.28877 5.20117 4.53555 5.20117H4.53359ZM4.53359 11.0437C4.29007 11.0388 4.0582 10.9385 3.88774 10.7645C3.71727 10.5905 3.6218 10.3567 3.6218 10.1131C3.6218 9.86951 3.71727 9.63563 3.88774 9.46164C4.0582 9.28765 4.29007 9.18741 4.53359 9.18242H9.39726C9.52108 9.17988 9.64417 9.20208 9.7593 9.24771C9.87444 9.29334 9.97931 9.36149 10.0678 9.44816C10.1562 9.53483 10.2265 9.63829 10.2745 9.75246C10.3225 9.86664 10.3472 9.98924 10.3472 10.1131C10.3472 10.2369 10.3225 10.3595 10.2745 10.4737C10.2265 10.5879 10.1562 10.6913 10.0678 10.778C9.97931 10.8647 9.87444 10.9328 9.7593 10.9785C9.64417 11.0241 9.52108 11.0463 9.39726 11.0437H4.53359Z" fill="#555555"/>
<path d="M14.6027 11.6309C13.7751 11.6309 12.966 11.8763 12.2778 12.3361C11.5896 12.7959 11.0533 13.4495 10.7365 14.2142C10.4198 14.9789 10.3369 15.8203 10.4984 16.632C10.6598 17.4438 11.0584 18.1895 11.6437 18.7747C12.2289 19.36 12.9746 19.7585 13.7863 19.92C14.5981 20.0815 15.4395 19.9986 16.2042 19.6818C16.9688 19.3651 17.6224 18.8287 18.0822 18.1406C18.5421 17.4524 18.7875 16.6433 18.7875 15.8156C18.7875 14.7058 18.3466 13.6413 17.5618 12.8565C16.777 12.0718 15.7126 11.6309 14.6027 11.6309ZM16.2613 16.4281H14.5195C14.3874 16.4281 14.2608 16.3757 14.1674 16.2823C14.074 16.1888 14.0215 16.0622 14.0215 15.9301V13.2543C14.0215 13.1222 14.074 12.9955 14.1674 12.9021C14.2608 12.8087 14.3874 12.7562 14.5195 12.7562C14.6516 12.7562 14.7783 12.8087 14.8717 12.9021C14.9651 12.9955 15.0176 13.1222 15.0176 13.2543V15.432H16.2613C16.3934 15.432 16.5201 15.4845 16.6135 15.5779C16.7069 15.6713 16.7594 15.798 16.7594 15.9301C16.7594 16.0622 16.7069 16.1888 16.6135 16.2823C16.5201 16.3757 16.3934 16.4281 16.2613 16.4281Z" fill="#555555"/>
</svg>
