<svg width="13" height="15" viewBox="0 0 13 15" fill="none" xmlns="http://www.w3.org/2000/svg">
<path d="M11.25 0H1.60714C1.1809 0 0.772119 0.169324 0.470721 0.470721C0.169324 0.772119 0 1.1809 0 1.60714V13.3929C0 13.8191 0.169324 14.2279 0.470721 14.5293C0.772119 14.8307 1.1809 15 1.60714 15H11.25C11.6762 15 12.085 14.8307 12.3864 14.5293C12.6878 14.2279 12.8571 13.8191 12.8571 13.3929V1.60714C12.8571 1.1809 12.6878 0.772119 12.3864 0.470721C12.085 0.169324 11.6762 0 11.25 0V0ZM9.10714 1.60714C9.2131 1.60714 9.31667 1.63856 9.40477 1.69743C9.49287 1.75629 9.56153 1.83996 9.60208 1.93785C9.64263 2.03574 9.65323 2.14345 9.63256 2.24737C9.61189 2.35129 9.56087 2.44674 9.48595 2.52166C9.41103 2.59659 9.31557 2.64761 9.21166 2.66828C9.10774 2.68895 9.00002 2.67834 8.90213 2.63779C8.80424 2.59725 8.72058 2.52858 8.66171 2.44048C8.60285 2.35239 8.57143 2.24881 8.57143 2.14286C8.57143 2.00078 8.62787 1.86452 8.72833 1.76405C8.8288 1.66358 8.96506 1.60714 9.10714 1.60714V1.60714ZM1.60714 2.14286C1.60714 2.00078 1.66358 1.86452 1.76405 1.76405C1.86452 1.66358 2.00078 1.60714 2.14286 1.60714H3.75C3.89208 1.60714 4.02834 1.66358 4.12881 1.76405C4.22927 1.86452 4.28571 2.00078 4.28571 2.14286C4.28571 2.28494 4.22927 2.4212 4.12881 2.52166C4.02834 2.62213 3.89208 2.67857 3.75 2.67857H2.14286C2.00078 2.67857 1.86452 2.62213 1.76405 2.52166C1.66358 2.4212 1.60714 2.28494 1.60714 2.14286ZM6.42857 13.3929C5.58094 13.3929 4.75234 13.1415 4.04756 12.6706C3.34277 12.1997 2.79346 11.5303 2.46909 10.7472C2.14471 9.9641 2.05984 9.10239 2.22521 8.27104C2.39057 7.43969 2.79875 6.67605 3.39811 6.07668C3.99748 5.47732 4.76112 5.06914 5.59247 4.90378C6.42382 4.73841 7.28553 4.82328 8.06864 5.14766C8.85176 5.47203 9.52109 6.02135 9.99201 6.72613C10.4629 7.43091 10.7143 8.25951 10.7143 9.10714C10.713 10.2434 10.2611 11.3327 9.45762 12.1362C8.65417 12.9396 7.56482 13.3916 6.42857 13.3929V13.3929ZM10.7143 2.67857C10.6083 2.67857 10.5048 2.64715 10.4167 2.58829C10.3286 2.52942 10.2599 2.44575 10.2193 2.34787C10.1788 2.24998 10.1682 2.14226 10.1889 2.03834C10.2095 1.93443 10.2606 1.83897 10.3355 1.76405C10.4104 1.68913 10.5059 1.63811 10.6098 1.61744C10.7137 1.59677 10.8214 1.60737 10.9193 1.64792C11.0172 1.68847 11.1009 1.75713 11.1597 1.84523C11.2186 1.93333 11.25 2.0369 11.25 2.14286C11.25 2.28494 11.1936 2.4212 11.0931 2.52166C10.9926 2.62213 10.8564 2.67857 10.7143 2.67857Z" fill="#555555"/>
<path d="M6.4452 9.10706C5.9439 8.85461 5.39014 8.72393 4.82887 8.7256C4.2676 8.72728 3.71463 8.86127 3.21484 9.1167C3.21534 9.96918 3.55446 10.7866 4.15761 11.389C4.45626 11.6873 4.81074 11.9239 5.20081 12.0852C5.59088 12.2465 6.0089 12.3294 6.431 12.3291C6.85311 12.3289 7.27103 12.2455 7.66092 12.0837C8.0508 11.922 8.405 11.685 8.7033 11.3863C9.0016 11.0877 9.23815 10.7332 9.39946 10.3431C9.56076 9.95308 9.64366 9.53506 9.64341 9.11295C9.14665 9.36097 8.59884 9.48958 8.04361 9.48856C7.48838 9.48754 6.94105 9.3569 6.4452 9.10706V9.10706Z" fill="#555555"/>
</svg>
