<svg width="30" height="28" viewBox="0 0 30 28" fill="none" xmlns="http://www.w3.org/2000/svg">
<path d="M15 0C6.73125 0 0 5.27205 0 11.7512C0 17.5543 5.3375 22.4164 12.5437 23.3406C13.0325 23.4401 13.6975 23.6523 13.8663 24.0527C14.0163 24.4159 13.965 24.9769 13.9138 25.3557L13.7088 26.5856C13.6525 26.9488 13.4088 28.0157 15.02 27.3636C16.6338 26.7139 23.665 22.444 26.815 18.9497C28.97 16.6721 30 14.3381 30 11.7512C30 5.27205 23.2687 0 15 0ZM9.12875 15.604H6.14625C5.715 15.604 5.35875 15.2599 5.35875 14.8452V9.09003C5.35875 8.67407 5.715 8.33003 6.14625 8.33003C6.58125 8.33003 6.93375 8.67407 6.93375 9.09003V14.0852H9.12875C9.56375 14.0852 9.915 14.4268 9.915 14.8452C9.915 15.2599 9.5625 15.604 9.12875 15.604ZM12.2113 14.8452C12.2113 15.2599 11.8587 15.604 11.4225 15.604C10.9912 15.604 10.6388 15.2599 10.6388 14.8452V9.09003C10.6388 8.67407 10.9912 8.33003 11.4262 8.33003C11.8587 8.33003 12.2113 8.67407 12.2113 9.09003V14.8452ZM19.3875 14.8452C19.3875 15.1712 19.17 15.4601 18.8475 15.5644C18.7675 15.5896 18.6812 15.6016 18.5987 15.6016C18.335 15.6016 18.11 15.4925 17.9613 15.2995L14.9075 11.2981V14.844C14.9075 15.2587 14.5588 15.6028 14.1188 15.6028C13.6863 15.6028 13.3363 15.2587 13.3363 14.844V9.09003C13.3363 8.76397 13.5525 8.47508 13.8738 8.37199C13.9488 8.34442 14.0438 8.33243 14.1163 8.33243C14.36 8.33243 14.585 8.4583 14.735 8.63931L17.8125 12.6563V9.09003C17.8125 8.67407 18.165 8.33003 18.6 8.33003C19.0312 8.33003 19.3875 8.67407 19.3875 9.09003V14.8452ZM24.2063 11.207C24.6425 11.207 24.9938 11.551 24.9938 11.9682C24.9938 12.3842 24.6425 12.7282 24.2063 12.7282H22.0125V14.0852H24.2063C24.6425 14.0852 24.9938 14.4268 24.9938 14.8452C24.9938 15.2599 24.6425 15.604 24.2063 15.604H21.2238C20.7925 15.604 20.44 15.2599 20.44 14.8452V9.09003C20.44 8.67407 20.7925 8.33003 21.2275 8.33003H24.21C24.6425 8.33003 24.9938 8.67407 24.9938 9.09003C24.9938 9.51079 24.6425 9.85003 24.2063 9.85003H22.0125V11.207H24.2063Z" fill="#1EC049"/>
</svg>
