<svg width="25" height="25" viewBox="0 0 25 25" fill="none" xmlns="http://www.w3.org/2000/svg">
<path fill-rule="evenodd" clip-rule="evenodd" d="M24.1423 13.2226C24.79 12.5746 25.0973 11.6611 24.9724 10.7532C24.6367 8.31135 23.7766 2.05722 23.7766 2.05722C23.717 1.62374 23.3763 1.28271 22.9428 1.22306C22.9428 1.22306 16.6886 0.363296 14.2465 0.0272607C13.3389 -0.0973473 12.4251 0.209644 11.7774 0.857668C9.72747 2.9073 3.6173 9.01746 0.8575 11.7776C-0.285833 12.9209 -0.285833 14.7747 0.8575 15.9181L9.08194 24.1425C10.2253 25.2858 12.0791 25.2858 13.2224 24.1425L24.1423 13.2226ZM22.762 11.8422L11.8421 22.7621C11.461 23.1434 10.8433 23.1434 10.462 22.7621L2.23756 14.538C1.85655 14.1567 1.85655 13.5386 2.23756 13.1576L13.1575 2.23773C13.3736 2.02193 13.6781 1.91949 13.9807 1.96103L21.9437 3.05595L23.039 11.0193C23.0805 11.3219 22.9781 11.6264 22.762 11.8422Z" fill="#555555"/>
<path fill-rule="evenodd" clip-rule="evenodd" d="M6.1798 15.308L9.69193 18.8201C10.0726 19.2008 10.6913 19.2008 11.072 18.8201C11.453 18.4391 11.453 17.8208 11.072 17.4397L7.55986 13.9276C7.17916 13.5469 6.56049 13.5469 6.1798 13.9276C5.79879 14.3086 5.79879 14.927 6.1798 15.308Z" fill="#555555"/>
</svg>
