<svg width="20" height="20" viewBox="0 0 20 20" fill="none" xmlns="http://www.w3.org/2000/svg">
<path d="M10 3C6.14022 3 3 6.14018 3 9.99997C3 13.8598 6.14022 17 10 17C13.8598 17 17 13.8598 17 9.99997C17 6.14018 13.8598 3 10 3ZM15.3126 9.01185L14.0559 13.4001C13.9575 13.744 13.6431 13.981 13.2854 13.981H6.70113C6.34258 13.981 6.02763 13.7429 5.92995 13.3979L4.68679 9.00966C4.60792 8.73137 4.68513 8.43223 4.88877 8.22683C5.09247 8.02148 5.39079 7.94175 5.66983 8.01816L7.62171 8.55327L9.36599 6.29856C9.5178 6.10235 9.7519 5.98746 9.99995 5.98746C10.248 5.98746 10.4821 6.10235 10.6339 6.29856L12.3781 8.55327L14.33 8.01816C14.6092 7.94165 14.9082 8.02164 15.1118 8.22763C15.3156 8.43357 15.3922 8.7334 15.3126 9.01185Z" fill="#555555"/>
<path d="M11.7045 9.87319L10.0027 7.7002L8.30083 9.87319C8.06568 10.1733 7.67072 10.3037 7.30017 10.2034L6 9.85128L6.81709 12.7002H13.1745L14 9.85271L12.7053 10.2033C12.3346 10.3038 11.9396 10.1733 11.7045 9.87319Z" fill="#555555"/>
<path d="M18.8233 7.91836C18.4778 7.57977 18.1516 7.25993 18.0113 6.92134C17.843 6.51509 17.8263 5.99904 17.8085 5.45267C17.781 4.60627 17.7498 3.6469 17.0819 2.94093C16.4492 2.27211 15.5553 2.28101 14.7671 2.28898C14.2833 2.29375 13.8265 2.2984 13.4879 2.15812C13.0817 1.98984 12.7049 1.6368 12.306 1.26301C11.688 0.683955 10.9877 0.0276698 10.0161 0.000755914C9.09701 -0.0250252 8.47026 0.613486 7.91834 1.17657C7.57971 1.52203 7.25991 1.84832 6.92132 1.98859C6.51507 2.15687 5.99898 2.17363 5.45258 2.19141C4.60622 2.21891 3.64689 2.25008 2.94092 2.918C2.27209 3.55073 2.28104 4.44436 2.28897 5.23279C2.29381 5.7165 2.29838 6.17341 2.15807 6.51204C1.98979 6.91829 1.63675 7.29508 1.26296 7.69399C0.683939 8.31191 0.0276544 9.01234 0.000740519 9.98382C-0.0247671 10.9042 0.613471 11.5297 1.17659 12.0817C1.52206 12.4202 1.84831 12.7401 1.98858 13.0787C2.15686 13.4849 2.17362 14.001 2.19139 14.5473C2.21889 15.3937 2.25006 16.3531 2.91799 17.0591C3.55072 17.7279 4.44466 17.719 5.23278 17.711C5.71652 17.7061 6.1734 17.7016 6.51199 17.8419C6.91823 18.0102 7.29503 18.3632 7.69393 18.737C8.31186 19.3161 9.01224 19.9723 9.98372 19.9993C10.0017 19.9998 10.0193 20 10.037 20C10.9283 20 11.5404 19.3756 12.0816 18.8234C12.4202 18.478 12.74 18.1517 13.0786 18.0114C13.4848 17.8431 14.0009 17.8264 14.5473 17.8086C15.3937 17.7811 16.353 17.7499 17.059 17.082C17.7278 16.4493 17.7189 15.5557 17.7109 14.7672C17.7061 14.2835 17.7015 13.8266 17.8418 13.488C18.0101 13.0817 18.3632 12.7049 18.7369 12.306C19.316 11.6881 19.9723 10.9877 19.9992 10.0162C20.0246 9.09589 19.3864 8.47031 18.8233 7.91836ZM9.99993 16.289C6.53218 16.289 3.71091 13.4677 3.71091 9.99995C3.71091 6.5322 6.53218 3.71097 9.99993 3.71097C13.4677 3.71097 16.289 6.5322 16.289 9.99995C16.289 13.4677 13.4677 16.289 9.99993 16.289Z" fill="#555555"/>
</svg>
