<svg width="20" height="20" viewBox="0 0 20 20" fill="none" xmlns="http://www.w3.org/2000/svg">
<path d="M13.0965 0H6.90418C3.09689 0 0 3.09689 0 6.90347V13.0965C0 16.9031 3.09689 20 6.90418 20H13.0965C16.9031 20 20 16.9031 20 13.0965V6.90347C20.0007 3.09618 16.9031 0 13.0965 0Z" fill="#EFEFEF"/>
<path d="M19.9984 6.90634V13.093C19.9984 13.2139 19.9984 13.3277 19.9913 13.4486H0.00906423C0.00195312 13.3277 0.00195312 13.2139 0.00195312 13.093V6.90634C0.00195312 6.78545 0.00195312 6.67167 0.00906423 6.55078H19.9913C19.9984 6.67167 19.9984 6.78545 19.9984 6.90634Z" fill="#241D4E"/>
<path d="M19.3473 3.99076C18.2458 1.63769 15.8621 0 13.0973 0H6.90496C4.13945 0 1.75581 1.63769 0.654297 3.99076H19.3473Z" fill="#E91C24"/>
<path d="M0.653564 16.0098C1.75508 18.3628 4.13872 20.0005 6.90423 20.0005H13.0966C15.8614 20.0005 18.245 18.3628 19.3465 16.0098H0.653564Z" fill="#E91C24"/>
</svg>
