<svg width="16" height="13" viewBox="0 0 16 13" fill="none" xmlns="http://www.w3.org/2000/svg">
<path d="M9.03906 6.13725C9.03906 6.67974 9.25456 7.20001 9.63816 7.58361C10.0218 7.9672 10.542 8.18271 11.0845 8.18271H15.8572V4.0918H11.0845C10.542 4.0918 10.0218 4.3073 9.63816 4.6909C9.25456 5.07449 9.03906 5.59476 9.03906 6.13725ZM11.7663 6.13725C11.7663 6.2721 11.7263 6.40393 11.6514 6.51605C11.5765 6.62817 11.47 6.71556 11.3454 6.76717C11.2209 6.81877 11.0838 6.83228 10.9515 6.80597C10.8192 6.77966 10.6978 6.71472 10.6024 6.61937C10.507 6.52402 10.4421 6.40253 10.4158 6.27027C10.3895 6.13801 10.403 6.00092 10.4546 5.87633C10.5062 5.75174 10.5936 5.64526 10.7057 5.57034C10.8178 5.49542 10.9497 5.45543 11.0845 5.45543C11.2653 5.45543 11.4388 5.52727 11.5666 5.65513C11.6945 5.783 11.7663 5.95642 11.7663 6.13725Z" fill="#B8B8B8"/>
<path d="M11.0842 9.54545C10.1801 9.54545 9.31294 9.18628 8.67361 8.54695C8.03429 7.90763 7.67511 7.04051 7.67511 6.13636C7.67511 5.23222 8.03429 4.3651 8.67361 3.72577C9.31294 3.08644 10.1801 2.72727 11.0842 2.72727H15.8569V2.04545C15.8569 1.50297 15.6414 0.982697 15.2578 0.5991C14.8742 0.215503 14.354 0 13.8115 0H2.90239C2.3599 0 1.83963 0.215503 1.45603 0.5991C1.07244 0.982697 0.856934 1.50297 0.856934 2.04545V10.2273C0.856934 10.7698 1.07244 11.29 1.45603 11.6736C1.83963 12.0572 2.3599 12.2727 2.90239 12.2727H13.8115C14.354 12.2727 14.8742 12.0572 15.2578 11.6736C15.6414 11.29 15.8569 10.7698 15.8569 10.2273V9.54545H11.0842Z" fill="#B8B8B8"/>
</svg>
