<svg width="20" height="17" viewBox="0 0 20 17" fill="none" xmlns="http://www.w3.org/2000/svg">
<path d="M10.9092 8.18235C10.9092 8.90567 11.1965 9.59936 11.708 10.1108C12.2194 10.6223 12.9131 10.9096 13.6365 10.9096H20.0001V5.45508H13.6365C12.9131 5.45508 12.2194 5.74241 11.708 6.25388C11.1965 6.76534 10.9092 7.45903 10.9092 8.18235ZM14.5455 8.18235C14.5455 8.36215 14.4922 8.53792 14.3923 8.68741C14.2924 8.83691 14.1505 8.95343 13.9843 9.02224C13.8182 9.09105 13.6354 9.10905 13.4591 9.07397C13.2828 9.0389 13.1208 8.95231 12.9936 8.82517C12.8665 8.69804 12.7799 8.53605 12.7448 8.35971C12.7098 8.18336 12.7278 8.00057 12.7966 7.83446C12.8654 7.66834 12.9819 7.52636 13.1314 7.42647C13.2809 7.32658 13.4567 7.27326 13.6365 7.27326C13.8776 7.27326 14.1088 7.36904 14.2793 7.53953C14.4498 7.71001 14.5455 7.94124 14.5455 8.18235Z" fill="#555555"/>
<path d="M13.6364 12.7273C12.4308 12.7273 11.2747 12.2484 10.4222 11.3959C9.5698 10.5435 9.09091 9.38735 9.09091 8.18182C9.09091 6.97629 9.5698 5.82013 10.4222 4.9677C11.2747 4.11526 12.4308 3.63636 13.6364 3.63636H20V2.72727C20 2.00395 19.7127 1.31026 19.2012 0.7988C18.6897 0.287337 17.996 0 17.2727 0H2.72727C2.00395 0 1.31026 0.287337 0.7988 0.7988C0.287337 1.31026 0 2.00395 0 2.72727V13.6364C0 14.3597 0.287337 15.0534 0.7988 15.5648C1.31026 16.0763 2.00395 16.3636 2.72727 16.3636H17.2727C17.996 16.3636 18.6897 16.0763 19.2012 15.5648C19.7127 15.0534 20 14.3597 20 13.6364V12.7273H13.6364Z" fill="#555555"/>
</svg>
